<svg width="1200" height="900" viewBox="0 0 1200 900" fill="none" xmlns="http://www.w3.org/2000/svg">
  <defs>
    <linearGradient id="bg" x1="151" y1="121" x2="1010" y2="805" gradientUnits="userSpaceOnUse">
      <stop stop-color="#EFF4FF"/>
      <stop offset="1" stop-color="#DCE8FF"/>
    </linearGradient>
    <linearGradient id="machine" x1="228" y1="226" x2="858" y2="697" gradientUnits="userSpaceOnUse">
      <stop stop-color="#153979"/>
      <stop offset="1" stop-color="#2757B5"/>
    </linearGradient>
  </defs>
  <rect width="1200" height="900" rx="48" fill="url(#bg)"/>
  <circle cx="960" cy="140" r="104" fill="#F59E0B" fill-opacity="0.16"/>
  <circle cx="186" cy="769" r="146" fill="#163B82" fill-opacity="0.07"/>
  <rect x="129" y="135" width="944" height="634" rx="42" fill="#FFFFFF"/>
  <rect x="203" y="244" width="550" height="323" rx="36" fill="url(#machine)"/>
  <rect x="258" y="290" width="440" height="81" rx="20" fill="#EFF4FF"/>
  <rect x="289" y="318" width="159" height="14" rx="7" fill="#163B82"/>
  <rect x="289" y="346" width="219" height="11" rx="5.5" fill="#8DA4D0"/>
  <rect x="258" y="407" width="440" height="116" rx="24" fill="#0F2D68"/>
  <rect x="292" y="444" width="102" height="44" rx="10" fill="#FDBA2D"/>
  <rect x="425" y="444" width="102" height="44" rx="10" fill="#FFFFFF"/>
  <rect x="558" y="444" width="102" height="44" rx="10" fill="#D7E4FF"/>
  <rect x="258" y="583" width="109" height="92" rx="24" fill="#163B82"/>
  <rect x="384" y="583" width="109" height="92" rx="24" fill="#163B82"/>
  <rect x="510" y="583" width="109" height="92" rx="24" fill="#163B82"/>
  <rect x="781" y="201" width="216" height="184" rx="28" fill="#FDBA2D"/>
  <rect x="815" y="238" width="110" height="13" rx="6.5" fill="#FFF2CD"/>
  <rect x="815" y="265" width="145" height="11" rx="5.5" fill="#FFF2CD"/>
  <rect x="815" y="298" width="146" height="54" rx="18" fill="#FFF2CD"/>
  <path d="M840 326H934" stroke="#F47D1F" stroke-width="8" stroke-linecap="round"/>
  <rect x="761" y="454" width="264" height="163" rx="30" fill="#F3F7FF"/>
  <rect x="803" y="493" width="144" height="14" rx="7" fill="#153979"/>
  <rect x="803" y="521" width="172" height="11" rx="5.5" fill="#90A4CE"/>
  <rect x="803" y="545" width="136" height="11" rx="5.5" fill="#90A4CE"/>
  <rect x="761" y="651" width="264" height="73" rx="24" fill="#153979"/>
  <circle cx="828" cy="724" r="28" fill="#0F2D68"/>
  <circle cx="946" cy="724" r="28" fill="#0F2D68"/>
  <rect x="824" y="674" width="140" height="45" rx="12" fill="#FDBA2D"/>
</svg>
