<svg xmlns="http://www.w3.org/2000/svg" viewBox="0 0 520 520" role="img" aria-labelledby="logoTitle logoDesc">
  <title id="logoTitle">Eagle Leap Publication</title>
  <desc id="logoDesc">Open-book logo for Eagle Leap Publication in red and blue.</desc>

  <defs>
    <filter id="softShadow" x="-20%" y="-20%" width="140%" height="140%">
      <feDropShadow dx="0" dy="10" stdDeviation="10" flood-color="#0b183f" flood-opacity="0.18" />
    </filter>
  </defs>

  <g filter="url(#softShadow)" stroke-linejoin="round" stroke-linecap="round">
    <g transform="translate(76 54)">
      <path
        d="M184 210C144 160 98 139 32 141L8 72C43 44 95 30 177 45c6 49 7 94 7 165Z"
        fill="#e3463d"
        stroke="#f3c8c4"
        stroke-width="5"
      />
      <path
        d="M184 210c40-50 86-71 152-69l24-69c-35-28-87-42-169-27-6 49-7 94-7 165Z"
        fill="#3b77a3"
        stroke="#d1e3f0"
        stroke-width="5"
      />
      <path d="M184 210 132 272 38 264 22 197c57-6 101-1 162 13Z" fill="#e3463d" stroke="#f3c8c4" stroke-width="5" />
      <path d="m184 210 52 62 94-8 16-67c-61-14-105-19-162-13Z" fill="#3b77a3" stroke="#d1e3f0" stroke-width="5" />
      <path d="M184 210v90l-24-33 12-33Z" fill="#cb352d" />
      <path d="M184 210v90l24-33-12-33Z" fill="#2f6489" />

      <path d="M46 110c46-11 82-8 123 16" fill="none" stroke="#ffffff" stroke-width="13" />
      <path d="M53 150c42-9 74-7 113 11" fill="none" stroke="#ffffff" stroke-width="12" />
      <path d="M60 188c37-6 61-5 98 9" fill="none" stroke="#ffffff" stroke-width="11" />

      <path d="M322 110c-46-11-82-8-123 16" fill="none" stroke="#ffffff" stroke-width="13" />
      <path d="M315 150c-42-9-74-7-113 11" fill="none" stroke="#ffffff" stroke-width="12" />
      <path d="M308 188c-37-6-61-5-98 9" fill="none" stroke="#ffffff" stroke-width="11" />

      <path d="M164 56c-12 2-20 10-23 29 15-3 24-11 30-27l-7-2Z" fill="#e3463d" />
      <path d="M204 56c12 2 20 10 23 29-15-3-24-11-30-27l7-2Z" fill="#3b77a3" />
    </g>
  </g>

  <text x="260" y="408" text-anchor="middle" fill="#e3463d" font-size="60" font-weight="900" letter-spacing="1.6">
    EAGLE LEAP
  </text>
  <text x="260" y="455" text-anchor="middle" fill="#3b77a3" font-size="48" font-weight="800" letter-spacing="1.2">
    PUBLICATION
  </text>
  <text
    x="260"
    y="494"
    text-anchor="middle"
    font-size="30"
    font-style="italic"
    font-family="'Segoe Script', 'Brush Script MT', cursive"
    fill="#3b77a3"
  >
    Take a leap with
    <tspan fill="#e3463d"> Eagle Leap !!</tspan>
  </text>
</svg>
