<svg xmlns="http://www.w3.org/2000/svg" viewBox="0 0 64 64" role="img" aria-labelledby="title">
  <title>Eagle Leap Publication</title>
  <rect width="64" height="64" rx="14" fill="#ffffff" />
  <g transform="translate(8 7)">
    <path d="M24 25C17 18 9 15 0 15L5 0c10-1 17 0 23 3 0 8 0 14-4 22Z" fill="#e84137" />
    <path d="M24 25c7-7 15-10 24-10L43 0c-10-1-17 0-23 3 0 8 0 14 4 22Z" fill="#2f6f97" />
    <path d="M24 25 17 36 4 35 2 27c10-1 16 0 22 2Z" fill="#e84137" />
    <path d="m24 25 7 11 13-1 2-8c-10-1-16 0-22 2Z" fill="#2f6f97" />
    <path d="M8 8c7-2 11-1 16 4" fill="none" stroke="#ffffff" stroke-linecap="round" stroke-width="3" />
    <path d="M10 15c6-1 10-1 14 2" fill="none" stroke="#ffffff" stroke-linecap="round" stroke-width="3" />
    <path d="M40 8c-7-2-11-1-16 4" fill="none" stroke="#ffffff" stroke-linecap="round" stroke-width="3" />
    <path d="M38 15c-6-1-10-1-14 2" fill="none" stroke="#ffffff" stroke-linecap="round" stroke-width="3" />
  </g>
</svg>
