<svg xmlns="http://www.w3.org/2000/svg" viewBox="0 0 1600 900" fill="none">
  <defs>
    <linearGradient id="bg" x1="0" y1="0" x2="1600" y2="900" gradientUnits="userSpaceOnUse">
      <stop stop-color="#0C255D"/>
      <stop offset="0.52" stop-color="#183F8A"/>
      <stop offset="1" stop-color="#F47A1F"/>
    </linearGradient>
    <linearGradient id="card" x1="916" y1="103" x2="1450" y2="757" gradientUnits="userSpaceOnUse">
      <stop stop-color="#FFFFFF" stop-opacity="0.16"/>
      <stop offset="1" stop-color="#FFFFFF" stop-opacity="0.05"/>
    </linearGradient>
    <linearGradient id="screen" x1="1038" y1="189" x2="1321" y2="460" gradientUnits="userSpaceOnUse">
      <stop stop-color="#244B9D"/>
      <stop offset="1" stop-color="#18397E"/>
    </linearGradient>
    <radialGradient id="glow" cx="0" cy="0" r="1" gradientUnits="userSpaceOnUse" gradientTransform="translate(1336 690) rotate(180) scale(378 282)">
      <stop stop-color="#F7A043" stop-opacity="0.48"/>
      <stop offset="1" stop-color="#F7A043" stop-opacity="0"/>
    </radialGradient>
  </defs>

  <rect width="1600" height="900" fill="url(#bg)"/>
  <ellipse cx="1336" cy="690" rx="378" ry="282" fill="url(#glow)"/>

  <g opacity="0.12">
    <path d="M85 637H193L230 742H122L85 637Z" fill="#FFFFFF"/>
    <path d="M212 598H320L357 742H249L212 598Z" fill="#FFFFFF"/>
    <path d="M342 664H450L487 742H379L342 664Z" fill="#FFFFFF"/>
    <path d="M441 607H549L586 742H478L441 607Z" fill="#FFFFFF"/>
    <path d="M563 651H671L708 742H600L563 651Z" fill="#FFFFFF"/>
    <rect x="126" y="733" width="606" height="12" rx="6" fill="#FFFFFF"/>
  </g>

  <g opacity="0.18">
    <circle cx="246" cy="188" r="94" fill="#7AA4FF"/>
    <circle cx="1452" cy="173" r="118" fill="#FFAA51"/>
  </g>

  <g>
    <rect x="930" y="102" width="516" height="655" rx="40" fill="url(#card)" stroke="#FFFFFF" stroke-opacity="0.16"/>
    <rect x="983" y="165" width="410" height="462" rx="34" fill="#0F2A67" fill-opacity="0.28" stroke="#FFFFFF" stroke-opacity="0.14"/>

    <rect x="1041" y="191" width="287" height="279" rx="26" fill="url(#screen)"/>
    <rect x="1070" y="221" width="229" height="161" rx="18" fill="#F2F5FB"/>
    <rect x="1094" y="246" width="83" height="13" rx="6.5" fill="#2A4E9D"/>
    <rect x="1094" y="273" width="122" height="13" rx="6.5" fill="#7A93C4"/>
    <rect x="1094" y="300" width="99" height="13" rx="6.5" fill="#7A93C4"/>
    <rect x="1094" y="327" width="156" height="13" rx="6.5" fill="#7A93C4"/>
    <rect x="1228" y="241" width="50" height="50" rx="12" fill="#FF972E"/>
    <path d="M1241 267L1251 277L1267 257" stroke="#FFFFFF" stroke-width="8" stroke-linecap="round" stroke-linejoin="round"/>
    <rect x="1090" y="402" width="211" height="36" rx="10" fill="#DCE5F6"/>

    <rect x="1354" y="217" width="80" height="168" rx="18" fill="#FF972E"/>
    <rect x="1372" y="245" width="44" height="9" rx="4.5" fill="#FFFFFF"/>
    <rect x="1372" y="272" width="44" height="9" rx="4.5" fill="#FFFFFF"/>
    <rect x="1372" y="299" width="31" height="9" rx="4.5" fill="#FFFFFF"/>
    <rect x="1354" y="406" width="112" height="65" rx="18" fill="#173C84"/>
    <rect x="1378" y="433" width="62" height="8" rx="4" fill="#D7E0F2"/>

    <rect x="1061" y="505" width="115" height="48" rx="15" fill="#FFFFFF"/>
    <rect x="1190" y="505" width="115" height="48" rx="15" fill="#FFFFFF"/>
    <rect x="1319" y="505" width="115" height="48" rx="15" fill="#FFFFFF"/>
    <circle cx="1092" cy="529" r="11" fill="#F7A043"/>
    <circle cx="1221" cy="529" r="11" fill="#173C84"/>
    <circle cx="1350" cy="529" r="11" fill="#F7A043"/>

    <path d="M1005 642H1400" stroke="#FFFFFF" stroke-opacity="0.14" stroke-width="2"/>
    <rect x="1003" y="664" width="186" height="112" rx="22" fill="#FFFFFF" fill-opacity="0.08" stroke="#FFFFFF" stroke-opacity="0.1"/>
    <rect x="1214" y="664" width="186" height="112" rx="22" fill="#FFFFFF" fill-opacity="0.08" stroke="#FFFFFF" stroke-opacity="0.1"/>
    <rect x="1003" y="793" width="186" height="112" rx="22" fill="#FFFFFF" fill-opacity="0.08" stroke="#FFFFFF" stroke-opacity="0.1"/>
    <rect x="1214" y="793" width="186" height="112" rx="22" fill="#FFFFFF" fill-opacity="0.08" stroke="#FFFFFF" stroke-opacity="0.1"/>
  </g>
</svg>
