<svg xmlns="http://www.w3.org/2000/svg" viewBox="0 0 1600 900" fill="none">
  <defs>
    <linearGradient id="bg" x1="46" y1="31" x2="1514" y2="866" gradientUnits="userSpaceOnUse">
      <stop stop-color="#0C255D"/>
      <stop offset="0.45" stop-color="#183C86"/>
      <stop offset="1" stop-color="#F08329"/>
    </linearGradient>
    <linearGradient id="paper" x1="902" y1="109" x2="1434" y2="721" gradientUnits="userSpaceOnUse">
      <stop stop-color="#FFFFFF" stop-opacity="0.18"/>
      <stop offset="1" stop-color="#FFFFFF" stop-opacity="0.06"/>
    </linearGradient>
    <linearGradient id="card" x1="994" y1="173" x2="1344" y2="454" gradientUnits="userSpaceOnUse">
      <stop stop-color="#274EA0"/>
      <stop offset="1" stop-color="#183779"/>
    </linearGradient>
    <radialGradient id="glow" cx="0" cy="0" r="1" gradientUnits="userSpaceOnUse" gradientTransform="translate(1328 703) rotate(180) scale(360 286)">
      <stop stop-color="#F7A043" stop-opacity="0.42"/>
      <stop offset="1" stop-color="#F7A043" stop-opacity="0"/>
    </radialGradient>
  </defs>

  <rect width="1600" height="900" fill="url(#bg)"/>
  <ellipse cx="1328" cy="703" rx="360" ry="286" fill="url(#glow)"/>

  <g opacity="0.18">
    <circle cx="284" cy="186" r="122" fill="#7AA4FF"/>
    <circle cx="1442" cy="184" r="118" fill="#FFAA51"/>
    <circle cx="978" cy="138" r="64" fill="#FFFFFF"/>
  </g>

  <g opacity="0.12">
    <path d="M58 697L188 654L224 751L94 794L58 697Z" fill="#FFFFFF"/>
    <path d="M146 584L276 541L312 638L182 681L146 584Z" fill="#FFFFFF"/>
    <path d="M237 681L367 638L403 735L273 778L237 681Z" fill="#FFFFFF"/>
    <path d="M325 565L455 522L491 619L361 662L325 565Z" fill="#FFFFFF"/>
  </g>

  <g>
    <rect x="921" y="102" width="505" height="655" rx="40" fill="url(#paper)" stroke="#FFFFFF" stroke-opacity="0.16"/>
    <rect x="965" y="149" width="417" height="462" rx="34" fill="url(#card)" stroke="#FFFFFF" stroke-opacity="0.14"/>

    <rect x="1036" y="219" width="281" height="215" rx="22" fill="#F4F7FD"/>
    <rect x="1065" y="245" width="223" height="52" rx="14" fill="#D9E2F4"/>
    <rect x="1065" y="315" width="106" height="11" rx="5.5" fill="#254C99"/>
    <rect x="1065" y="337" width="164" height="11" rx="5.5" fill="#8AA1CF"/>
    <rect x="1065" y="359" width="145" height="11" rx="5.5" fill="#8AA1CF"/>
    <rect x="1065" y="381" width="184" height="11" rx="5.5" fill="#8AA1CF"/>
    <circle cx="1261" cy="348" r="38" fill="#FF972E"/>
    <path d="M1241 349L1255 363L1282 334" stroke="#FFFFFF" stroke-width="9" stroke-linecap="round" stroke-linejoin="round"/>

    <rect x="1360" y="224" width="63" height="146" rx="20" fill="#FF972E"/>
    <rect x="1374" y="252" width="35" height="8" rx="4" fill="#FFFFFF"/>
    <rect x="1374" y="276" width="35" height="8" rx="4" fill="#FFFFFF"/>
    <rect x="1374" y="300" width="26" height="8" rx="4" fill="#FFFFFF"/>
    <rect x="1360" y="390" width="95" height="71" rx="18" fill="#173C84"/>
    <rect x="1380" y="416" width="54" height="8" rx="4" fill="#D7E0F2"/>
    <rect x="1380" y="438" width="38" height="8" rx="4" fill="#D7E0F2"/>

    <rect x="1029" y="470" width="163" height="70" rx="18" fill="#FFFFFF"/>
    <rect x="1210" y="470" width="163" height="70" rx="18" fill="#FFFFFF"/>
    <circle cx="1070" cy="505" r="12" fill="#183C84"/>
    <rect x="1094" y="499" width="73" height="10" rx="5" fill="#7B93C3"/>
    <circle cx="1251" cy="505" r="12" fill="#FF972E"/>
    <rect x="1275" y="499" width="73" height="10" rx="5" fill="#7B93C3"/>

    <rect x="974" y="631" width="182" height="118" rx="22" fill="#FFFFFF" fill-opacity="0.08" stroke="#FFFFFF" stroke-opacity="0.1"/>
    <rect x="1184" y="631" width="182" height="118" rx="22" fill="#FFFFFF" fill-opacity="0.08" stroke="#FFFFFF" stroke-opacity="0.1"/>
    <rect x="974" y="769" width="182" height="118" rx="22" fill="#FFFFFF" fill-opacity="0.08" stroke="#FFFFFF" stroke-opacity="0.1"/>
    <rect x="1184" y="769" width="182" height="118" rx="22" fill="#FFFFFF" fill-opacity="0.08" stroke="#FFFFFF" stroke-opacity="0.1"/>
  </g>
</svg>
